# xmcd
#
# Track frame offsets:
#	150
#	35097
#	61990
#	92995
#	115260
#	141205
#	164205
#	188255
#	224530
#	259005
#
# Disc length: 3905 seconds
#
# Revision: 3
# Processed by: cddbd v1.5.2PL0 Copyright (c) Steve Scherf et al.
# Submitted via: EasyCDDAExtractor 15.3.0.1
#
DISCID=960f3f0a
DTITLE=Howlin' Wolf - Live and Cookin' at Alice's Revisited
DYEAR=2003
DGENRE=Blues
TTITLE0=When I Laid Down I Was Troubled
TTITLE1=I Didn't Know
TTITLE2=Mean Mistreater
TTITLE3=I Had A Dream
TTITLE4=Call Me The Wolf
TTITLE5=Don't Laugh At Me
TTITLE6=Just Passing By
TTITLE7=Sitting On Top Of The World
TTITLE8=The Big House
TTITLE9=Mr. Airplane Man
EXTD=YEAR: 2003
EXTT0=
EXTT1=
EXTT2=
EXTT3=
EXTT4=
EXTT5=
EXTT6=
EXTT7=
EXTT8=
EXTT9=Previously unreleased bonus track
PLAYORDER=
